<?xml version="1.0" standalone="no"?>
<!DOCTYPE svg PUBLIC "-//W3C//DTD SVG 20010904//EN"
 "http://www.w3.org/TR/2001/REC-SVG-20010904/DTD/svg10.dtd">
<svg version="1.0" xmlns="http://www.w3.org/2000/svg"
 width="594.000000pt" height="594.000000pt" viewBox="0 0 594.000000 594.000000"
 preserveAspectRatio="xMidYMid meet">
<metadata>
Created by potrace 1.11, written by Peter Selinger 2001-2013
</metadata>
<g transform="translate(0.000000,594.000000) scale(0.100000,-0.100000)"
fill="#000000" stroke="none">
<path d="M2820 5357 c-159 -109 -329 -226 -430 -295 -81 -55 -101 -69 -155
-109 -24 -18 -49 -33 -54 -33 -6 0 -11 -4 -11 -9 0 -5 -9 -13 -20 -16 -11 -3
-26 -12 -33 -18 -13 -13 -64 -49 -167 -118 -36 -24 -67 -46 -70 -49 -3 -3 -26
-19 -52 -35 -27 -17 -48 -33 -48 -37 0 -5 -7 -8 -15 -8 -8 0 -15 -3 -15 -8 0
-4 -17 -16 -37 -27 -20 -11 -41 -24 -48 -30 -13 -12 -40 -32 -165 -117 -200
-136 -267 -182 -311 -214 -26 -19 -51 -34 -57 -34 -6 0 -12 -4 -14 -8 -3 -7
-77 -60 -283 -201 -44 -30 -82 -58 -83 -63 -2 -4 -8 -6 -13 -2 -5 3 -9 0 -9
-6 0 -6 -10 -15 -22 -20 -13 -5 -57 -33 -98 -62 l-75 -53 -3 -328 c-1 -180 1
-327 6 -327 7 0 52 28 62 39 3 3 13 11 22 16 9 6 68 45 130 88 150 103 210
145 228 157 8 6 67 46 130 89 63 44 157 108 207 143 51 35 130 89 175 121 46
31 90 62 98 67 8 6 58 40 110 76 52 35 121 83 153 104 32 22 87 60 121 85 35
25 68 45 74 45 6 0 12 4 14 8 2 7 141 105 284 202 13 8 62 42 111 76 48 33
184 127 301 207 l213 147 127 -87 c70 -48 141 -96 157 -107 17 -12 32 -24 33
-28 2 -5 8 -8 14 -8 6 0 27 -13 47 -28 20 -16 86 -62 146 -102 61 -41 112 -77
115 -80 11 -13 131 -90 140 -90 5 0 10 -3 10 -7 0 -5 25 -24 55 -43 30 -19 54
-38 55 -42 0 -5 5 -8 12 -8 6 0 20 -7 30 -17 10 -9 27 -21 38 -27 17 -9 160
-109 302 -208 21 -16 43 -28 48 -28 4 0 10 -3 12 -8 2 -4 32 -27 68 -52 73
-50 227 -155 250 -170 8 -6 73 -51 143 -100 71 -50 133 -90 138 -90 5 0 9 -4
9 -10 0 -5 6 -10 14 -10 8 0 16 -4 18 -8 5 -13 449 -315 454 -309 7 7 7 634 0
645 -4 8 -236 170 -331 232 -56 37 -320 217 -348 238 -28 21 -260 181 -311
215 -10 6 -44 30 -75 52 -31 23 -73 51 -94 64 -21 13 -43 28 -50 34 -7 7 -20
17 -30 22 -34 20 -339 231 -360 248 -12 10 -38 28 -59 39 -21 12 -38 25 -38
30 0 4 -5 8 -11 8 -9 0 -76 46 -116 80 -7 5 -14 10 -17 10 -2 0 -75 49 -163
110 -87 60 -166 115 -177 122 -10 7 -24 18 -30 23 -15 13 -47 33 -66 42 -8 4
-19 11 -25 15 -31 25 -103 76 -120 85 -17 9 -42 -5 -165 -90z"/>
<path d="M2931 4119 c-19 -16 -37 -29 -42 -29 -4 0 -14 -6 -21 -12 -7 -7 -49
-37 -93 -67 -44 -30 -145 -100 -225 -155 -80 -54 -194 -133 -255 -174 -60 -42
-153 -105 -205 -142 -52 -37 -144 -100 -204 -141 -349 -238 -371 -253 -374
-261 -2 -5 -8 -8 -13 -8 -5 0 -50 -29 -99 -65 -49 -36 -94 -65 -98 -65 -5 0
-17 -8 -28 -17 -11 -10 -49 -38 -84 -62 -36 -25 -66 -48 -68 -53 -2 -4 -8 -8
-13 -8 -8 0 -228 -149 -264 -178 -5 -4 -17 -11 -25 -15 -8 -4 -46 -30 -85 -57
-38 -28 -100 -71 -137 -97 l-68 -46 0 -328 0 -329 25 12 c14 6 25 15 25 20 0
4 5 8 11 8 5 0 30 15 53 33 24 17 52 38 62 45 48 31 226 154 294 201 41 29
113 78 160 109 47 31 87 59 90 62 6 6 35 26 225 155 72 49 132 92 135 95 3 4
12 9 20 13 14 6 332 225 355 244 11 9 146 101 173 118 9 6 22 16 30 23 7 6 23
17 35 24 12 6 61 40 109 75 48 34 92 63 98 63 5 0 10 4 10 9 0 5 8 11 18 14
15 6 370 251 399 276 7 6 24 16 38 23 14 6 25 14 25 18 0 4 13 13 29 19 27 12
34 9 117 -49 100 -70 189 -130 213 -145 9 -5 18 -13 21 -16 3 -3 48 -34 100
-69 52 -35 97 -67 98 -72 2 -4 10 -8 17 -8 7 0 15 -3 17 -7 5 -11 66 -53 77
-53 5 0 11 -4 13 -8 2 -5 32 -28 68 -52 36 -24 67 -47 68 -52 2 -4 8 -8 13 -8
8 0 131 -81 164 -108 6 -4 73 -51 150 -102 77 -52 142 -98 145 -101 3 -3 48
-34 100 -69 52 -35 97 -66 100 -69 3 -3 13 -10 22 -16 42 -25 250 -170 260
-182 6 -7 14 -13 19 -13 4 0 69 -43 144 -95 75 -52 140 -95 145 -95 4 0 10 -4
12 -8 3 -8 135 -102 143 -102 3 0 13 -7 22 -15 34 -28 207 -144 210 -141 2 2
4 148 4 325 l1 322 -53 37 c-30 20 -63 45 -73 55 -11 9 -25 17 -32 17 -7 0
-14 4 -16 8 -3 7 -108 81 -328 230 -36 24 -66 48 -68 53 -2 5 -8 9 -14 9 -6 0
-26 11 -44 25 -18 14 -35 25 -39 25 -3 0 -18 11 -33 25 -15 14 -33 25 -40 25
-7 0 -15 7 -18 15 -3 8 -15 17 -26 21 -16 5 -123 79 -165 114 -7 5 -16 10 -21
10 -5 0 -17 9 -27 20 -10 11 -21 20 -26 20 -6 0 -189 124 -240 163 -8 7 -23
17 -32 22 -54 33 -293 200 -295 207 -2 4 -10 8 -18 8 -8 0 -14 5 -14 10 0 6
-5 10 -11 10 -11 0 -82 50 -87 63 -2 4 -10 7 -18 7 -8 0 -14 5 -14 10 0 6 -4
10 -10 10 -5 0 -72 43 -147 96 -76 53 -149 104 -163 113 -14 10 -63 44 -110
76 -47 32 -126 87 -175 121 l-91 62 -33 -29z"/>
<path d="M2890 2777 c-41 -29 -146 -102 -233 -162 -87 -61 -166 -114 -175
-120 -9 -5 -19 -12 -22 -15 -3 -3 -39 -27 -80 -55 -41 -27 -79 -53 -85 -57
-48 -37 -106 -78 -111 -78 -3 0 -23 -13 -44 -30 -21 -16 -41 -30 -44 -30 -4 0
-12 -5 -19 -11 -7 -6 -79 -57 -162 -114 -82 -57 -155 -108 -162 -114 -7 -6
-16 -11 -21 -11 -4 0 -17 -8 -28 -17 -11 -10 -40 -32 -64 -48 -313 -213 -567
-389 -586 -404 -5 -4 -21 -14 -34 -21 -13 -7 -29 -17 -34 -22 -6 -5 -49 -36
-96 -68 -47 -32 -90 -63 -96 -68 -5 -5 -21 -15 -35 -22 -13 -7 -26 -16 -29
-19 -4 -6 -36 -27 -81 -56 -9 -5 -39 -26 -67 -45 l-52 -35 0 -327 c0 -181 3
-328 6 -328 4 0 39 22 78 49 194 132 292 201 304 211 6 6 12 7 12 3 0 -4 5 0
11 9 5 10 16 18 24 18 7 0 15 3 17 8 2 4 39 31 83 61 44 30 90 63 103 74 12
11 22 17 22 13 0 -4 6 -2 13 4 6 6 50 38 97 70 47 33 90 63 95 67 6 5 44 30
85 58 41 27 77 52 80 55 3 3 32 23 65 45 33 21 62 41 65 44 3 3 52 38 110 76
58 39 110 75 116 80 6 6 42 31 80 55 38 25 71 47 74 50 3 3 41 30 85 60 44 30
82 58 83 62 2 4 8 8 13 8 5 0 35 18 66 41 32 22 96 66 143 97 47 31 91 62 97
69 7 6 29 21 50 34 21 13 43 27 48 31 6 5 42 30 80 56 39 26 107 74 153 105
l82 58 128 -87 c70 -48 130 -92 134 -98 5 -7 8 -7 8 -1 0 6 3 6 8 -1 4 -6 41
-33 82 -59 41 -27 79 -55 83 -62 4 -7 13 -13 19 -13 6 0 20 -7 30 -17 10 -9
27 -21 37 -27 11 -6 67 -44 125 -84 58 -40 132 -90 164 -112 31 -22 62 -43 67
-48 10 -7 108 -75 393 -269 70 -48 129 -90 130 -95 2 -4 10 -8 18 -8 8 0 14
-4 14 -10 0 -5 7 -10 15 -10 8 0 15 -4 15 -10 0 -5 7 -10 15 -10 8 0 15 -4 15
-10 0 -5 6 -10 14 -10 8 0 16 -4 18 -8 2 -5 59 -46 128 -93 69 -46 127 -87
128 -91 2 -5 10 -8 17 -8 7 0 15 -4 17 -8 2 -5 53 -42 113 -83 61 -40 112 -76
115 -79 3 -3 23 -17 45 -30 22 -13 42 -27 45 -30 3 -3 55 -40 115 -81 61 -41
112 -76 115 -79 13 -14 62 -41 66 -37 5 5 7 648 2 651 -22 14 -156 103 -163
109 -27 21 -312 218 -325 224 -8 4 -24 15 -34 25 -11 10 -25 18 -32 18 -7 0
-14 4 -16 8 -3 7 -56 45 -348 245 -63 43 -188 129 -277 190 -89 62 -218 150
-285 196 -68 47 -124 88 -126 93 -2 4 -8 8 -13 8 -5 0 -35 18 -67 40 -150 106
-275 190 -282 190 -5 0 -10 4 -12 8 -1 4 -48 39 -103 77 -55 38 -101 73 -103
77 -2 4 -8 8 -13 8 -4 0 -43 24 -84 53 -42 28 -84 57 -93 62 -9 6 -25 18 -36
28 -11 9 -22 17 -25 16 -3 0 -40 -23 -81 -52z"/>
</g>
</svg>
